<mxfile host="app.diagrams.net" modified="2024-05-29T14:20:56.913Z" agent="Mozilla/5.0 (Windows NT 10.0; Win64; x64) AppleWebKit/537.36 (KHTML, like Gecko) Chrome/125.0.0.0 Safari/537.36" version="24.3.0" etag="AkMwQN4gbT-7ByiDINVF" type="github">
  <diagram name="PÃ¡gina-1" id="VNq9uEKA-FmvZrXafFe-">
    <mxGraphModel>
      <root>
        <mxCell id="0" />
        <mxCell id="1" parent="0" />
      </root>
    </mxGraphModel>
  </diagram>
</mxfile>
